<?xml version="1.0" standalone="no"?>
<!DOCTYPE svg PUBLIC "-//W3C//DTD SVG 20010904//EN"
 "http://www.w3.org/TR/2001/REC-SVG-20010904/DTD/svg10.dtd">
<svg version="1.0" xmlns="http://www.w3.org/2000/svg"
 width="376.000000pt" height="78.000000pt" viewBox="0 0 376.000000 78.000000"
 preserveAspectRatio="xMidYMid meet">

<g transform="translate(0.000000,78.000000) scale(0.100000,-0.100000)"
fill="#000000" stroke="none">
<path d="M223 771 c-31 -8 -123 -58 -123 -66 0 -3 12 0 26 5 40 16 115 11 159
-9 23 -10 60 -41 84 -70 33 -40 49 -51 72 -51 33 0 69 31 69 60 0 28 -59 91
-106 111 -48 22 -136 31 -181 20z m140 -42 c45 -12 107 -64 107 -89 0 -10 -8
-21 -17 -24 -13 -5 -29 6 -58 39 -22 25 -53 55 -70 65 -33 22 -20 25 38 9z"/>
<path d="M1190 492 c0 -120 3 -221 6 -225 14 -14 34 7 34 36 l0 30 24 -26 c78
-84 221 -41 247 74 25 112 -39 199 -148 199 -44 0 -58 -5 -88 -31 l-35 -31 0
96 c0 89 -1 96 -20 96 -19 0 -20 -7 -20 -218z m213 37 c52 -24 73 -109 41
-170 -19 -37 -74 -63 -115 -54 -102 23 -132 160 -47 219 26 18 86 21 121 5z"/>
<path d="M1800 492 c0 -120 3 -221 6 -225 3 -3 12 -3 20 0 11 4 14 27 14 97 0
73 4 97 20 124 24 39 62 56 110 48 59 -9 70 -33 70 -156 0 -86 3 -109 15 -113
23 -9 29 12 32 108 3 159 -24 205 -123 205 -45 0 -59 -5 -88 -31 l-35 -30 -3
93 c-3 79 -6 93 -20 96 -17 3 -18 -12 -18 -216z"/>
<path d="M143 656 c0 -8 3 -15 6 -14 20 2 22 -4 6 -22 -29 -32 -13 -30 20 3
17 17 24 27 17 23 -8 -5 -21 -1 -31 8 -15 13 -18 14 -18 2z"/>
<path d="M178 663 c7 -3 16 -2 19 1 4 3 -2 6 -13 5 -11 0 -14 -3 -6 -6z"/>
<path d="M1080 654 c-11 -12 -10 -18 3 -32 16 -15 18 -15 34 0 13 14 14 20 3
32 -7 9 -16 16 -20 16 -4 0 -13 -7 -20 -16z"/>
<path d="M69 624 c-16 -20 5 -24 29 -5 22 16 23 17 2 17 -12 0 -26 -6 -31 -12z"/>
<path d="M45 589 c-4 -6 -5 -12 -2 -15 2 -3 7 2 10 11 7 17 1 20 -8 4z"/>
<path d="M611 559 c-49 -30 -28 -45 33 -25 75 25 136 0 136 -56 0 -28 0 -28
-65 -28 -108 0 -155 -30 -155 -100 0 -39 36 -76 83 -85 39 -8 99 8 117 31 16
18 31 18 24 1 -3 -8 1 -19 9 -26 30 -24 39 12 35 131 -4 120 -13 148 -55 167
-40 18 -124 13 -162 -10z m169 -177 c0 -64 -113 -109 -159 -63 -25 25 -27 54
-5 75 11 12 36 16 90 16 l74 0 0 -28z"/>
<path d="M887 573 c-4 -3 -7 -73 -7 -154 0 -123 3 -148 15 -153 20 -7 23 2 28
110 5 106 19 135 78 158 43 17 48 39 11 44 -14 2 -33 -8 -53 -27 -17 -17 -32
-31 -35 -31 -2 0 -4 14 -4 30 0 28 -17 40 -33 23z"/>
<path d="M1080 426 c0 -150 1 -156 20 -156 20 0 20 5 18 152 -3 136 -5 153
-20 156 -17 3 -18 -9 -18 -152z"/>
<path d="M1585 568 c-77 -42 -52 -132 45 -158 57 -15 95 -53 80 -80 -19 -36
-60 -37 -162 -3 -27 8 -23 -23 5 -41 61 -40 166 -27 192 24 33 64 11 98 -84
135 -68 26 -92 49 -76 76 14 21 56 29 97 18 30 -8 44 -7 52 1 30 31 -99 56
-149 28z"/>
<path d="M2192 560 c-48 -29 -72 -75 -72 -139 0 -69 26 -113 86 -141 35 -17
55 -21 87 -16 96 16 142 77 135 177 -5 63 -26 97 -80 125 -40 21 -117 18 -156
-6z m159 -48 c25 -23 32 -38 36 -78 6 -65 -20 -108 -76 -125 -87 -26 -157 36
-148 131 10 93 118 135 188 72z"/>
<path d="M2482 358 c3 -190 5 -223 18 -223 12 0 16 19 18 98 l3 99 20 -26 c40
-51 138 -58 193 -15 60 47 78 156 37 222 -45 73 -161 90 -221 32 l-28 -27 -4
28 c-2 18 -10 30 -21 32 -16 3 -17 -11 -15 -220z m216 166 c71 -49 67 -170 -8
-209 -105 -54 -210 58 -155 165 21 41 53 60 100 60 22 0 51 -7 63 -16z"/>
<path d="M2835 568 c-3 -7 -4 -108 -3 -223 3 -179 5 -210 18 -210 12 0 16 19
18 99 3 94 4 98 19 77 19 -28 71 -51 113 -51 119 0 187 156 116 265 -41 63
-159 74 -215 21 l-29 -28 -4 28 c-3 30 -25 44 -33 22z m231 -62 c28 -28 34
-41 34 -77 0 -58 -18 -90 -61 -113 -88 -48 -190 39 -165 140 4 15 20 39 36 55
23 24 37 29 75 29 40 0 52 -5 81 -34z"/>
<path d="M3239 557 c-67 -44 -87 -133 -49 -212 34 -70 117 -101 195 -71 47 18
70 39 61 55 -4 5 -26 1 -55 -11 -34 -15 -58 -19 -83 -14 -38 7 -84 49 -90 81
-3 19 3 20 125 23 l127 3 0 30 c0 45 -29 99 -64 120 -45 27 -123 25 -167 -4z
m164 -48 c15 -16 27 -38 27 -49 0 -20 -5 -21 -107 -18 -102 3 -108 4 -105 23
5 27 49 73 76 78 40 8 81 -5 109 -34z"/>
<path d="M3527 573 c-4 -3 -7 -73 -7 -154 0 -120 3 -148 15 -152 22 -9 26 5
28 100 3 108 20 144 77 167 44 17 49 39 12 44 -14 2 -33 -8 -53 -27 -35 -36
-41 -38 -38 -13 3 31 -1 42 -14 42 -8 0 -17 -3 -20 -7z"/>
<path d="M31 534 c0 -11 3 -14 6 -6 3 7 2 16 -1 19 -3 4 -6 -2 -5 -13z"/>
<path d="M102 500 c0 -14 2 -19 5 -12 2 6 2 18 0 25 -3 6 -5 1 -5 -13z"/>
<path d="M30 465 c0 -5 5 -17 10 -25 5 -8 10 -10 10 -5 0 6 -5 17 -10 25 -5 8
-10 11 -10 5z"/>
<path d="M124 418 c-4 -6 1 -17 11 -25 25 -17 39 -17 23 1 -7 8 -17 11 -22 8
-5 -3 -7 2 -3 11 7 19 2 23 -9 5z"/>
<path d="M66 391 c-4 -5 -2 -12 3 -15 5 -4 12 -2 15 3 4 5 2 12 -3 15 -5 4
-12 2 -15 -3z"/>
<path d="M100 359 c0 -5 5 -7 10 -4 6 3 10 8 10 11 0 2 -4 4 -10 4 -5 0 -10
-5 -10 -11z"/>
<path d="M133 354 c-10 -9 -11 -12 -3 -8 8 4 28 7 44 6 33 -3 31 6 -2 13 -11
2 -28 -3 -39 -11z"/>
<path d="M3111 171 c-7 -5 -12 -14 -10 -20 2 -6 10 -2 17 9 14 22 13 23 -7 11z"/>
<path d="M3160 170 c0 -5 5 -10 11 -10 5 0 7 5 4 10 -3 6 -8 10 -11 10 -2 0
-4 -4 -4 -10z"/>
<path d="M3497 163 c-4 -3 -7 -11 -7 -17 0 -6 5 -4 10 4 9 13 13 12 27 -5 14
-18 15 -18 9 -2 -3 10 -6 21 -6 23 0 7 -26 5 -33 -3z"/>
<path d="M3150 126 c0 -2 7 -7 16 -10 8 -3 12 -2 9 4 -6 10 -25 14 -25 6z"/>
<path d="M3240 120 c0 -5 5 -10 11 -10 5 0 7 5 4 10 -3 6 -8 10 -11 10 -2 0
-4 -4 -4 -10z"/>
<path d="M3540 106 c0 -8 4 -17 9 -20 5 -4 7 3 4 14 -6 23 -13 26 -13 6z"/>
<path d="M3169 73 c-13 -16 -12 -17 4 -4 9 7 17 15 17 17 0 8 -8 3 -21 -13z"/>
</g>
</svg>
