<?xml version="1.0" encoding="utf-8"?>
<!-- Generator: Adobe Illustrator 26.5.0, SVG Export Plug-In . SVG Version: 6.00 Build 0)  -->
<svg version="1.1" id="Layer_2_00000035502798924154392790000001408328782748577952_"
    xmlns="http://www.w3.org/2000/svg" xmlns:xlink="http://www.w3.org/1999/xlink" x="0px" y="0px"
    viewBox="0 0 798 354"
    style="enable-background:new 0 0 798 354;" xml:space="preserve">
<style type="text/css">
	.st0{fill:#FFC71C;}
	.st1{fill-rule:evenodd;clip-rule:evenodd;fill:#231F20;}
</style>
<g>
	<path class="st0" d="M259.8,342c-14.2,0-25.8-11.5-25.8-25.8V37.8c0-14.2,11.5-25.8,25.8-25.8h278.4c14.2,0,25.8,11.5,25.8,25.8
		v278.4c0,14.2-11.5,25.8-25.8,25.8H259.8z"/>
	<path class="st1" d="M391.6,228.6c-76.2,0-105.6-66.3-101.6-116.5l22.4-7.1c-3.7,28.5,5.2,49.1,11.3,58.6
		c-7.3-40.4,23.2-73.2,61.4-73.2c34.4-0.1,62.7,25.1,62.6,61c5-13.7,8.5-34.7,9.2-49.2l51.6,12.8
		C504.3,175.5,458.9,228.6,391.6,228.6L391.6,228.6z M465.7,263.6l-29.3-29.6h29l29.3,29.6H465.7L465.7,263.6L465.7,263.6z
		 M426.5,263.6l-29.4-29.6h29.1l29.3,29.6H426.5L426.5,263.6L426.5,263.6z M361.1,263.6H332l29.3-29.6h29.1L361.1,263.6L361.1,263.6
		L361.1,263.6z M292.8,263.6l29.4-29.6h29l-29.3,29.6H292.8L292.8,263.6L292.8,263.6z M385.1,111.5c-22.8,0-41.2,18.5-41.2,41.3
		s18.4,41.2,41.2,41.2c22.8,0,41.2-18.5,41.2-41.2C426.3,129.9,407.9,111.5,385.1,111.5L385.1,111.5z"/>
</g>
</svg>